HIERARCHY
ROOT Hips
{
	OFFSET 0.000000 0.000000 0.000000
	CHANNELS 6 Xposition Yposition Zposition Zrotation Yrotation Xrotation 
	JOINT LowerBack
	{
		OFFSET 0.000000 0.000000 0.000000
		CHANNELS 3 Zrotation Yrotation Xrotation
		JOINT Spine
		{
			OFFSET 0.028270 2.035590 -0.193380
			CHANNELS 3 Zrotation Yrotation Xrotation
			JOINT Spine1
			{
				OFFSET 0.056720 2.048850 -0.042750
				CHANNELS 3 Zrotation Yrotation Xrotation
				JOINT Neck
				{
					OFFSET 0.000000 0.000000 0.000000
					CHANNELS 3 Zrotation Yrotation Xrotation
					JOINT Neck1
					{
						OFFSET -0.054170 1.746240 0.172020
						CHANNELS 3 Zrotation Yrotation Xrotation
						JOINT Head
						{
							OFFSET 0.104070 1.761360 -0.123970
							CHANNELS 3 Zrotation Yrotation Xrotation
							End Site
							{
								OFFSET 0.000000 0.000000 0.000000
							}
						}
					}
				}
				JOINT LeftShoulder
				{
					OFFSET 0.000000 0.000000 0.000000
					CHANNELS 3 Zrotation Yrotation Xrotation
					JOINT LeftArm
					{
						OFFSET 3.362410 1.200890 -0.311210
						CHANNELS 3 Zrotation Yrotation Xrotation
						JOINT LeftForeArm
						{
							OFFSET 4.983000 -0.000000 -0.000000
							CHANNELS 3 Zrotation Yrotation Xrotation
							JOINT LeftHand
							{
								OFFSET 3.483560 -0.000000 -0.000000
								CHANNELS 3 Zrotation Yrotation Xrotation
								JOINT LeftFingerBase
								{
									OFFSET 0.000000 0.000000 0.000000
									CHANNELS 3 Zrotation Yrotation Xrotation
									JOINT LeftHandIndex1
									{
										OFFSET 0.715260 -0.000000 -0.000000
										CHANNELS 3 Zrotation Yrotation Xrotation
										End Site
										{
											OFFSET 0.000000 0.000000 0.000000
										}
									}
								}
								JOINT LThumb
								{
									OFFSET 0.000000 0.000000 0.000000
									CHANNELS 3 Zrotation Yrotation Xrotation
									End Site
									{
										OFFSET 0.000000 0.000000 0.000000
									}
								}
							}
						}
					}
				}
				JOINT RightShoulder
				{
					OFFSET 0.000000 0.000000 0.000000
					CHANNELS 3 Zrotation Yrotation Xrotation
					JOINT RightArm
					{
						OFFSET -3.136600 1.374050 -0.404650
						CHANNELS 3 Zrotation Yrotation Xrotation
						JOINT RightForeArm
						{
							OFFSET -5.241900 -0.000000 -0.000000
							CHANNELS 3 Zrotation Yrotation Xrotation
							JOINT RightHand
							{
								OFFSET -3.444170 -0.000000 -0.000000
								CHANNELS 3 Zrotation Yrotation Xrotation
								JOINT RightFingerBase
								{
									OFFSET 0.000000 0.000000 0.000000
									CHANNELS 3 Zrotation Yrotation Xrotation
									JOINT RightHandIndex1
									{
										OFFSET -0.622530 -0.000000 -0.000000
										CHANNELS 3 Zrotation Yrotation Xrotation
										End Site
										{
											OFFSET 0.000000 0.000000 0.000000
										}
									}
								}
								JOINT RThumb
								{
									OFFSET 0.000000 0.000000 0.000000
									CHANNELS 3 Zrotation Yrotation Xrotation
									End Site
									{
										OFFSET 0.000000 0.000000 0.000000
									}
								}
							}
						}
					}
				}
			}
		}
	}
}
}
MOTION
Frames: 11
Frame Time: 0.008333
26.223267 16.454600 2.040164 160.243814 -86.608974 -146.922683 -7.368298 2.037259 -6.965408 -2.289050 2.420480 -4.170339 -5.170667 2.283306 1.203477 7.515353 -4.780539 -9.624338 -2.117648 -0.140118 -0.543855 0.000000 0.000000 0.000000 -2.087604 22.300889 2.315295 -46.421244 20.227683 -0.811314 -5.303013 -11.839193 -0.010565 1.781083 3.672343 0.064554 -0.196957 -0.069079 -0.000000 0.000000 0.000000 0.000000 0.000000 0.000000 0.000000 7.826438 2.698838 0.809001 44.119319 44.168112 22.948024 0.772493 61.847362 0.007515 1.483955 6.187039 0.087815 -0.034107 -0.379714 0.000000 0.000000 0.000000 0.000000 0.000000 0.000000 0.000000 
26.072981 16.446008 2.054014 159.350035 -86.472119 -146.379794 -7.548487 2.039439 -6.780812 -2.350339 2.439830 -4.159911 -5.300207 2.305700 1.120453 7.735057 -4.560629 -9.585733 -2.218241 -0.148437 -0.540268 0.000000 0.000000 0.000000 -2.584890 22.090338 2.304984 -46.414823 19.086885 -0.582242 -5.271425 -11.559165 -0.010367 2.200581 3.850603 0.081749 -0.190669 -0.066269 -0.000000 0.000000 0.000000 0.000000 0.000000 0.000000 0.000000 8.332122 3.028866 0.849364 45.526878 42.657188 23.449281 0.866932 61.479864 0.008125 1.437865 6.277100 0.085885 -0.025255 -0.374139 0.000000 0.000000 0.000000 0.000000 0.000000 0.000000 0.000000 
25.924781 16.436339 2.068733 158.460112 -86.305762 -145.849936 -7.725047 2.045453 -6.578214 -2.410997 2.462769 -4.149536 -5.433588 2.331480 1.025684 7.951596 -4.323367 -9.532865 -2.325330 -0.157433 -0.533278 0.000000 0.000000 0.000000 -3.066418 21.854875 2.294127 -46.470944 17.854735 -0.480050 -5.243387 -11.115556 -0.009834 2.612978 3.917837 0.097147 -0.183959 -0.062475 -0.000000 0.000000 0.000000 0.000000 0.000000 0.000000 0.000000 8.853865 3.370770 0.877092 46.925843 41.088310 23.859360 0.959157 61.008053 0.008495 1.348691 6.405162 0.081655 -0.016398 -0.369063 0.000000 0.000000 0.000000 0.000000 0.000000 0.000000 0.000000 
25.778668 16.425322 2.084171 157.586824 -86.111604 -145.332396 -7.897045 2.052749 -6.369688 -2.470270 2.486532 -4.141457 -5.568808 2.357517 0.919256 8.161456 -4.067103 -9.462944 -2.437487 -0.167023 -0.521948 0.000000 0.000000 0.000000 -3.526724 21.585937 2.283199 -46.598155 16.554187 -0.495589 -5.217352 -10.530073 -0.009015 3.022885 3.876638 0.109847 -0.176822 -0.057901 -0.000000 0.000000 0.000000 0.000000 0.000000 0.000000 0.000000 9.382960 3.722374 0.892731 48.323350 39.471262 24.173434 1.049328 60.415033 0.008687 1.226494 6.567233 0.075724 -0.007770 -0.364279 0.000000 0.000000 0.000000 0.000000 0.000000 0.000000 0.000000 
25.635191 16.412772 2.100019 156.661072 -85.897270 -144.747759 -8.067970 2.056663 -6.164661 -2.528407 2.506689 -4.136512 -5.704329 2.379167 0.804165 8.365520 -3.797299 -9.376432 -2.553586 -0.177100 -0.506338 0.000000 0.000000 0.000000 -3.955736 21.279329 2.272813 -46.804248 15.196417 -0.619833 -5.191658 -9.820960 -0.007970 3.433500 3.731931 0.119048 -0.169261 -0.052721 -0.000000 0.000000 0.000000 0.000000 0.000000 0.000000 0.000000 9.920068 4.073277 0.898133 49.719706 37.827158 24.389147 1.137792 59.680823 0.008740 1.080076 6.758943 0.068188 0.000430 -0.359558 0.000000 0.000000 0.000000 0.000000 0.000000 0.000000 0.000000 
25.494404 16.398625 2.115972 155.649552 -85.671582 -144.054839 -8.238739 2.053309 -5.970703 -2.585097 2.519416 -4.135564 -5.838551 2.392365 0.681249 8.562391 -3.517227 -9.272552 -2.672169 -0.187550 -0.486128 0.000000 0.000000 0.000000 -4.349145 20.923893 2.263709 -47.092228 13.801782 -0.835605 -5.164840 -9.015921 -0.006762 3.844301 3.490185 0.123652 -0.161306 -0.047162 -0.000000 0.000000 0.000000 0.000000 0.000000 0.000000 0.000000 10.460328 4.416135 0.895447 51.121815 36.168609 24.496109 1.225286 58.786513 0.008721 0.924092 6.973066 0.059748 0.007963 -0.354628 -0.000000 0.000000 0.000000 0.000000 0.000000 0.000000 0.000000 
25.356405 16.382993 2.131474 154.440954 -85.445490 -143.136815 -8.417090 2.037280 -5.791123 -2.641642 2.520013 -4.137624 -5.970435 2.392402 0.555333 8.756166 -3.240258 -9.154874 -2.792086 -0.198214 -0.462347 0.000000 0.000000 0.000000 -4.697782 20.515495 2.256465 -47.464156 12.374082 -1.122948 -5.135488 -8.138120 -0.005458 4.253247 3.160840 0.123157 -0.153005 -0.041389 -0.000000 0.000000 0.000000 0.000000 0.000000 0.000000 0.000000 11.010362 4.732342 0.888170 52.528903 34.525285 24.490350 1.312820 57.710388 0.008665 0.766650 7.204536 0.050800 0.014737 -0.349253 -0.000000 0.000000 0.000000 0.000000 0.000000 0.000000 0.000000 
25.221448 16.366115 2.146501 153.094416 -85.226182 -142.052034 -8.595680 2.007616 -5.626167 -2.696081 2.506907 -4.142882 -6.098715 2.377481 0.423871 8.941562 -2.964654 -9.020910 -2.911707 -0.208987 -0.434137 0.000000 0.000000 0.000000 -5.008907 20.036712 2.252024 -47.913355 10.945661 -1.440423 -5.102770 -7.232835 -0.004128 4.653336 2.756993 0.116964 -0.144465 -0.035702 -0.000000 0.000000 0.000000 0.000000 0.000000 0.000000 0.000000 11.557233 5.021811 0.878274 53.954893 32.896502 24.345926 1.401155 56.437132 0.008625 0.621775 7.445496 0.042144 0.020577 -0.343191 -0.000000 0.000000 0.000000 0.000000 0.000000 0.000000 0.000000 
25.089405 16.348366 2.160519 151.497832 -85.021143 -140.693041 -8.782921 1.960363 -5.470991 -2.750114 2.476912 -4.148867 -6.223137 2.344597 0.291585 9.123854 -2.706022 -8.875916 -3.030010 -0.219699 -0.403075 0.000000 0.000000 0.000000 -5.277907 19.486248 2.250884 -48.435760 9.515571 -1.749667 -5.065993 -6.330607 -0.002845 5.039168 2.296633 0.105172 -0.135789 -0.030216 -0.000000 0.000000 0.000000 0.000000 0.000000 0.000000 0.000000 12.109200 5.265157 0.869188 55.398788 31.311099 24.050064 1.491131 54.949201 0.008602 0.490613 7.691689 0.033877 0.025535 -0.336298 -0.000000 0.000000 0.000000 0.000000 0.000000 0.000000 0.000000 
24.960760 16.330299 2.173724 149.734543 -84.832894 -139.149647 -8.967924 1.897168 -5.319245 -2.801221 2.430695 -4.155480 -6.342846 2.294230 0.152938 9.296177 -2.457259 -8.715149 -3.145663 -0.230297 -0.367658 0.000000 0.000000 0.000000 -5.517061 18.840386 2.254617 -49.022331 8.128079 -2.002369 -5.025390 -5.488146 -0.001665 5.401584 1.801622 0.088182 -0.127143 -0.025173 -0.000000 0.000000 0.000000 0.000000 0.000000 0.000000 0.000000 12.650099 5.469544 0.862897 56.873616 29.758292 23.560750 1.582834 53.238831 0.008601 0.377429 7.939592 0.026400 0.029571 -0.328498 -0.000000 0.000000 0.000000 0.000000 0.000000 0.000000 0.000000 
24.835330 16.312500 2.185965 147.768786 -84.661013 -137.393794 -9.153769 1.817704 -5.163313 -2.850235 2.368166 -4.159721 -6.458130 2.226590 0.013628 9.462505 -2.231868 -8.545357 -3.257834 -0.240606 -0.329862 0.000000 0.000000 0.000000 -5.731943 18.112298 2.262077 -49.660553 6.757036 -2.183157 -4.981869 -4.708576 -0.000620 5.730609 1.280232 0.066492 -0.118699 -0.020507 -0.000000 0.000000 0.000000 0.000000 0.000000 0.000000 0.000000 13.185325 5.619252 0.861129 58.375969 28.263156 22.856071 1.675936 51.298169 0.008568 0.270221 8.188723 0.018909 0.032881 -0.319769 -0.000000 0.000000 0.000000 0.000000 0.000000 0.000000 0.000000 
